/* XPM */
static char *iop__[] = {
/* columns rows colors chars-per-pixel */
"16 16 178 2 ",
"   c #004B77",
".  c #00557F",
"X  c #005782",
"o  c #005885",
"O  c #005F89",
"+  c #005E8C",
"@  c #00608C",
"#  c #0A648E",
"$  c #166186",
"%  c #006490",
"&  c #006595",
"*  c #006696",
"=  c #0B6994",
"-  c #006499",
";  c #00689A",
":  c #006A9E",
">  c #0F6F99",
",  c #096C9E",
"<  c #086F9F",
"1  c #116F9A",
"2  c #11729F",
"3  c #206A8F",
"4  c #206D90",
"5  c #236F94",
"6  c #286F93",
"7  c #317394",
"8  c #377796",
"9  c #006FA2",
"0  c #0076AB",
"q  c #0675AA",
"w  c #0075AC",
"e  c #0077AD",
"r  c #1F7AA4",
"t  c #117BAC",
"y  c #117FAF",
"u  c #0078B0",
"i  c #0C7EB3",
"p  c #007DB9",
"a  c #007FB9",
"s  c #007FBB",
"d  c #117FB3",
"f  c #207CA6",
"g  c #1B80AF",
"h  c #0080BE",
"j  c #0081BE",
"k  c #0084BD",
"l  c #0584BE",
"z  c #1A81B2",
"x  c #1B8ABE",
"c  c #2984AD",
"v  c #2286B5",
"b  c #2287B6",
"n  c #228BBD",
"m  c #378FB7",
"M  c #3892BB",
"N  c #3F95BD",
"B  c #4A86A3",
"V  c #4A87A3",
"C  c #548DA8",
"Z  c #5991AD",
"A  c #4192B7",
"S  c #5599B7",
"D  c #609DB9",
"F  c #679FB8",
"G  c #669FBA",
"H  c #71A3B9",
"J  c #75A7BE",
"K  c #0084C2",
"L  c #0084C3",
"P  c #0087C7",
"I  c #0A89C2",
"U  c #0085C9",
"Y  c #008AC8",
"T  c #0089CA",
"R  c #008BCA",
"E  c #008BCB",
"W  c #008BCD",
"Q  c #008DCC",
"!  c #008CCE",
"~  c #008FCE",
"^  c #028ECF",
"/  c #048DCC",
"(  c #1C8CC1",
")  c #1190CC",
"_  c #1193CE",
"`  c #1B93CB",
"'  c #1B96CF",
"]  c #0A93D1",
"[  c #1A98D2",
"{  c #208FC5",
"}  c #2C95C4",
"|  c #2094CA",
" . c #3495C4",
".. c #3896C1",
"X. c #229BD5",
"o. c #229BD6",
"O. c #229DD8",
"+. c #309ED0",
"@. c #4599C1",
"#. c #439CC6",
"$. c #4BA3CD",
"%. c #5AA1C2",
"&. c #5DA5C5",
"*. c #41A5D2",
"=. c #42ABDC",
"-. c #4BACD8",
";. c #4BADD9",
":. c #56B4DE",
">. c #5BB0D9",
",. c #5DB3DC",
"<. c #5DB6DE",
"1. c #62A5C5",
"2. c #66ACCC",
"3. c #69ADCC",
"4. c #7BACC2",
"5. c #7CB2CA",
"6. c #60B0D6",
"7. c #69B6D7",
"8. c #60B6DE",
"9. c #69B7DA",
"0. c #66B8DE",
"q. c #6AB9DC",
"w. c #71BADA",
"e. c #4AB1E0",
"r. c #65BAE2",
"t. c #6AC1E9",
"y. c #75C1E4",
"u. c #89B7CB",
"i. c #8EB6C9",
"p. c #91BACC",
"a. c #95BBCD",
"s. c #89BAD0",
"d. c #8CBCD1",
"f. c #8CBED3",
"g. c #89BDD4",
"h. c #86BED8",
"j. c #99BED0",
"k. c #98BFD1",
"l. c #8AC1D9",
"z. c #89C2DC",
"x. c #8BC4DE",
"c. c #9CC2D3",
"v. c #98C2D6",
"b. c #9DC4D6",
"n. c #81C6E5",
"m. c #89C5E0",
"M. c #8CC7E1",
"N. c #8CC8E3",
"B. c #89C8E6",
"V. c #89CDEC",
"C. c #8DCEEC",
"Z. c #96CDE6",
"A. c #9BCFE6",
"S. c #90CDE9",
"D. c #98CFE8",
"F. c #8DD0ED",
"G. c #98D0EA",
"H. c #9BD6F1",
"J. c #98D6F2",
"K. c #98D7F4",
"L. c #AAD0E1",
"P. c #A5D3E9",
"I. c #AAD6E9",
"U. c #AEDAEE",
"Y. c #B2D3E2",
"T. c #BFDFEE",
"R. c #B7DFF1",
"E. c #C8DFE9",
"W. c #C7E0EB",
"Q. c #D0E2EA",
"!. c #C6E4F2",
"~. c #CCE5F0",
"^. c #DAF0FB",
"/. c #E1F0F6",
"(. c #F1F9FD",
"). c #F4FBFD",
"_. c #FDFDFE",
"`. c None",
/* pixels */
"`.`.`.`.`.`.`._ _ `.`.`.`.`.`.`.",
"`.`.`.`.O.t.V.F.C.B.9.n `.`.`.`.",
"`.`.`.;.J.8.X.] / ` >.S.#.`.`.`.",
"`.`.$.D.x s K Q =.n.P.T.^.@.`.`.",
"`.b A.z w u } Z.G.r.,.!._.U.g `.",
"`.3.&.: 9 N h. .K W U 0./.w.2.`.",
"`.g.r * f A m ..s Y ^ R.I.( z.`.",
"2 f.= % > * c M u h y.(.+.l M.y ",
"> d.# + + + S 1.q x.).:.P I N.d ",
"`.u.5 . X o D Y.W.~.*.^ Y | m.`.",
"`.F i.C H p.Q.E.%.i h ~ Y <.7.`.",
"`.3 c.8 7 6 4.5.- w k Q [ J.{ `.",
"`.`.V a.$   J s.- 0 s ' K.-.`.`.",
"`.`.`.V c.Z j.v., v 6.K.e.`.`.`.",
"`.`.`.`.4 G b.L.l.z.q.o.`.`.`.`.",
"`.`.`.`.`.`.`., y `.`.`.`.`.`.`."
};
