/* XPM */
static char *iop__[] = {
/* columns rows colors chars-per-pixel */
"32 32 193 2 ",
"   c #004E76",
".  c #00547C",
"X  c #005782",
"o  c #005B84",
"O  c #0A5F87",
"+  c #005E8A",
"@  c #00628D",
"#  c #136287",
"$  c #16658B",
"%  c #006593",
"&  c #096691",
"*  c #006896",
"=  c #096995",
"-  c #006799",
";  c #006B9C",
":  c #0A6D9A",
">  c #146B92",
",  c #1B6E95",
"<  c #0D709C",
"1  c #1F7095",
"2  c #13739E",
"3  c #1E759D",
"4  c #2A789C",
"5  c #337493",
"6  c #006EA2",
"7  c #0071A4",
"8  c #0B73A3",
"9  c #0075AB",
"0  c #0079AE",
"q  c #097AAE",
"w  c #1374A1",
"e  c #1578A5",
"r  c #1E79A4",
"t  c #127CAC",
"y  c #1E7DA9",
"u  c #0077B2",
"i  c #007BB4",
"p  c #0D7CB0",
"a  c #007EBA",
"s  c #277DA4",
"d  c #297EA6",
"f  c #1D81AF",
"g  c #0980B5",
"h  c #0082BC",
"j  c #0F84BA",
"k  c #1483B6",
"l  c #1B84B4",
"z  c #1486BB",
"x  c #1788BB",
"c  c #1C89BB",
"v  c #2982AB",
"b  c #3482A5",
"n  c #3187AF",
"m  c #3288AF",
"M  c #2B86B1",
"N  c #2A8FBD",
"B  c #2A90BF",
"V  c #3692BD",
"C  c #4184A4",
"Z  c #4788A6",
"A  c #4888A5",
"S  c #448AA9",
"D  c #5691AD",
"F  c #5993AD",
"G  c #458FB1",
"H  c #4A94B5",
"J  c #4295BB",
"K  c #5E9CB7",
"L  c #6A9DB4",
"P  c #619DB9",
"I  c #62A1BF",
"U  c #6BA0B9",
"Y  c #0085C3",
"T  c #0F87C0",
"R  c #0189C5",
"E  c #0A8AC4",
"W  c #0087C8",
"Q  c #008CCC",
"!  c #158CC4",
"~  c #1A8EC4",
"^  c #138FC9",
"/  c #0090CF",
"(  c #0991CE",
")  c #1590C7",
"_  c #1890C6",
"`  c #1393CD",
"'  c #1C94CC",
"]  c #008ED1",
"[  c #0191D1",
"{  c #1696D0",
"}  c #1E9AD3",
"|  c #169CD9",
" . c #199EDB",
".. c #3097C7",
"X. c #349AC7",
"o. c #3999C6",
"O. c #349BC8",
"+. c #299ED4",
"@. c #35A4D6",
"#. c #3BA3D3",
"$. c #469FC8",
"%. c #529EC1",
"&. c #46A3CD",
"*. c #49A3CD",
"=. c #56A9CF",
"-. c #46AAD7",
";. c #46AEDC",
":. c #49ADDC",
">. c #51A9D1",
",. c #4DB0DE",
"<. c #51B0DB",
"1. c #5CB3DB",
"2. c #65A5C1",
"3. c #6BA6C2",
"4. c #62ABCC",
"5. c #6AACCA",
"6. c #60ADD1",
"7. c #6AB2D3",
"8. c #61B4D9",
"9. c #6BB6D8",
"0. c #6BB9DD",
"q. c #74B5D2",
"w. c #7EBEDA",
"e. c #49B3E4",
"r. c #5FB9E1",
"t. c #62B8E0",
"y. c #6BBDE3",
"u. c #61BEE8",
"i. c #6CC0E6",
"p. c #78C0E1",
"a. c #84B0C5",
"s. c #8DB4C6",
"d. c #95B9C8",
"f. c #89BBD2",
"g. c #84BFD9",
"h. c #84C2DF",
"j. c #8BC0D8",
"k. c #9DC2D3",
"l. c #94C4DA",
"z. c #9DC7DA",
"x. c #9DC9DD",
"c. c #A4C3D3",
"v. c #A8C7D4",
"b. c #A7CBDC",
"n. c #ABCCDB",
"m. c #B0CCD8",
"M. c #BCD3DF",
"N. c #84C6E4",
"B. c #8CC5E0",
"V. c #85C8E7",
"C. c #85CAEA",
"Z. c #8ECDEA",
"A. c #95CCE5",
"S. c #98C9E1",
"D. c #95CFE9",
"F. c #9DD2EA",
"G. c #A7D1E4",
"H. c #ABD2E3",
"J. c #A6D4E9",
"K. c #ABD6EA",
"L. c #A7D8EF",
"P. c #ADD9EC",
"I. c #B3D3E1",
"U. c #BBD5E2",
"Y. c #BFD9E6",
"T. c #B0D7E9",
"R. c #B1DAED",
"E. c #BDDDEC",
"W. c #AADBF1",
"Q. c #BADFF0",
"!. c #CBE2EC",
"~. c #D4E5EC",
"^. c #D9E6EC",
"/. c #DCE9EE",
"(. c #C4E3F2",
"). c #C8E4F1",
"_. c #CEEAF6",
"`. c #D6EAF3",
"'. c #DBECF4",
"]. c #D7EEF8",
"[. c #DCEFF8",
"{. c #DEF0F7",
"}. c #DFF0F8",
"|. c #E3EEF3",
" X c #E5F1F6",
".X c #EBF3F7",
"XX c #E5F3F9",
"oX c #EAF4F9",
"OX c #EFF8FC",
"+X c #F2F7F9",
"@X c #F6FAFC",
"#X c #FEFFFF",
"$X c None",
/* pixels */
"$X$X$X$X$X$X$X$X$X$X$X$X$X$X$X$X$X$X$X$X$X$X$X$X$X$X$X$X$X$X$X$X",
"$X$X$X$X$X$X$X$X$X$X$X] ] ( } +.+.' E Y a $X$X$X$X$X$X$X$X$X$X$X",
"$X$X$X$X$X$X$X$X$X]  .u.W.].XXoXoXXX].K.8._ i $X$X$X$X$X$X$X$X$X",
"$X$X$X$X$X$X$XQ | C.XXXXL.y.;.@.@.-.0.J.|.XXh.! i $X$X$X$X$X$X$X",
"$X$X$X$X$X$XW :.`.{.0.{ Q ] ] Q Q W W W ! 9.{.'.*.0 $X$X$X$X$X$X",
"$X$X$X$X$XY 0.@XA.! Y R W ] / ] ] ] W R Y a T B.+X7.0 $X$X$X$X$X",
"$X$X$X$Xa 9.@X7.g h h Y R R Q ] Q ( @.0.D.P.K.B.E.#X7.9 $X$X$X$X",
"$X$X$Xu &.@X7.0 i g h h h Y W ` i._.#X#X#X#X#X#X@X#X@X$.9 $X$X$X",
"$X$X$Xz {.l.9 9 0 0 i g a h 8.'.#X_.Z.8.<.0.Q.#X#X#X|.`.k $X$X$X",
"$X$X9 g.'.t 7 9 9 9 0 0 c T.@XJ.#.( ] ] Q W E R.#X#Xw.`.g.7 $X$X",
"$X$Xl |.5.; 7 7 7 9 7 V ~.E.o.a Y W / / ] Q W p.#X#X=.6.oXk $X$X",
"$X6 4.|.e ; ; ; 6 ; V !.5.0 u a h Y R ] ] ] R F.#X@X..j XX6.6 $X",
"$X6 H.b.- ; ; ; * m z.M 6 q.q.i g h R / / ] { {.#X).Y i G.H.9 $X",
"$X< /.3.@ * * * 3 I w ; ; l.f.0 i h h Q / ] N.#X#X8.a i 7.'.q $X",
"$Xr  XG @ * * % v < * ; ; 8 f 0 i g h R W e.@X#X(.E h h &.XXl $X",
"$Xv  Xb + @ @ @ @ @ * * ; f.b.7 0 g h h #.oX#XOX#.W Y a X.oXN $X",
"$Xs  Xb + + @ @ @ @ @ * % b.I.6 9 0 i >.XX#X@X1.W Q R h O.oXB $X",
"$X3  XS o + + + + + @ * @ n.I.6 7 p h.@X#X@Xt.] Q Q R h &.XXc $X",
"$X& ^.U . + O o + @ + @ @ I.I.; %.!.#X#X{.-.Q [ Q Q R h 9.'.g $X",
"$X+ n.v.. o o o + o + + + U.'.Y.#X#X@Xx.~ h / [ / Q R h J.K.i $X",
"$XX K +XD # . . X O 1 D k.+X#X#XoXx.V u h Y Q [ ] Q R ) XX8.u $X",
"$X$X> |.c.s.v.m.M.~.+X#X@X#X|.I y 6 9 g h h Q [ Q ] W 9.XX_ $X$X",
"$X$XX a.^.# 5 F L L F C 4 /.!.* ; 7 9 0 h h Q [ / Q ` {.N.h $X$X",
"$X$X$X$ /.d.  . . . . o O /.~.: ; 7 9 0 g h R [ / Q D.{.` $X$X$X",
"$X$X$X. Z @XL   . o o o > |./.: ; 7 9 0 h h R ] Q y.@X:.W $X$X$X",
"$X$X$X$X. U +XL   X o o >  X|.< ; ; 9 0 i h Y Q y.@Xy.W $X$X$X$X",
"$X$X$X$X$X. L +Xd.# . X 1 +X X2 ; 7 9 0 i h ` D.@Xi.] $X$X$X$X$X",
"$X$X$X$X$X$X. A ^./.L $ 1 +X.X2 * ; 6 0 x 9.[.[.e.] $X$X$X$X$X$X",
"$X$X$X$X$X$X$X. $ a. X|.M.#X@XH m J 5.H.|.XXC.| ] $X$X$X$X$X$X$X",
"$X$X$X$X$X$X$X$X$XX , P b.~.|.oX X X`.K.8.' W $X$X$X$X$X$X$X$X$X",
"$X$X$X$X$X$X$X$X$X$X$Xo + = r v M f q i a $X$X$X$X$X$X$X$X$X$X$X",
"$X$X$X$X$X$X$X$X$X$X$X$X$X$X$X$X$X$X$X$X$X$X$X$X$X$X$X$X$X$X$X$X"
};
