/* XPM */
static char *iop__[] = {
/* columns rows colors chars-per-pixel */
"64 64 256 2 ",
"   c #00547C",
".  c #00587E",
"X  c #0A587F",
"o  c #005781",
"O  c #005B84",
"+  c #005E89",
"@  c #0B5E83",
"#  c #125F83",
"$  c #00628D",
"%  c #0B638B",
"&  c #15668C",
"*  c #1B688B",
"=  c #1D678A",
"-  c #006593",
";  c #0A6791",
":  c #016896",
">  c #0C6892",
",  c #006698",
"<  c #006C9C",
"1  c #0A6C99",
"2  c #116B93",
"3  c #1B6E94",
"4  c #0D709D",
"5  c #1E7197",
"6  c #14749F",
"7  c #1A729C",
"8  c #216A8C",
"9  c #286D8F",
"0  c #296F91",
"q  c #277193",
"w  c #297193",
"e  c #257599",
"r  c #2B799D",
"t  c #3A7E9D",
"y  c #006EA1",
"u  c #0072A5",
"i  c #0075AA",
"p  c #0079AE",
"a  c #0C7BAE",
"s  c #0C72A0",
"d  c #1476A4",
"f  c #147DAC",
"g  c #1B7DAA",
"h  c #1B7BA7",
"j  c #0076B1",
"k  c #007CB4",
"l  c #0B7DB2",
"z  c #007EB9",
"x  c #127FB1",
"c  c #2177A2",
"v  c #2A7EA3",
"b  c #267CA4",
"n  c #347DA0",
"m  c #3E819E",
"M  c #0082BC",
"N  c #0B83BA",
"B  c #1281B4",
"V  c #1B84B5",
"C  c #1286BB",
"Z  c #1987B9",
"A  c #1689BE",
"S  c #1C8ABD",
"D  c #2A80A7",
"F  c #2482AE",
"G  c #2B82AB",
"H  c #3782A6",
"J  c #2987B2",
"K  c #2588B7",
"L  c #2C8AB5",
"P  c #238CBC",
"I  c #2A8CB9",
"U  c #2586B2",
"Y  c #348BB3",
"T  c #3A8FB6",
"R  c #2A90BF",
"E  c #3C90B7",
"W  c #3C93BD",
"Q  c #4285A3",
"!  c #4D89A5",
"~  c #4387A8",
"^  c #4B8CAC",
"/  c #4889A6",
"(  c #528EAB",
")  c #4B90AE",
"_  c #438EB3",
"`  c #4A93B4",
"'  c #4394BA",
"]  c #4299BF",
"[  c #4C9ABE",
"{  c #4B97BB",
"}  c #5C97B1",
"|  c #539ABC",
" . c #5D9BB7",
".. c #6095AE",
"X. c #6297B0",
"o. c #659FB8",
"O. c #689AB2",
"+. c #5CA0BF",
"@. c #61A0BD",
"#. c #6CA3BD",
"$. c #79A8BD",
"%. c #0086C2",
"&. c #0089C5",
"*. c #0087C8",
"=. c #008DCC",
"-. c #0C8FCB",
";. c #0C88C1",
":. c #138BC4",
">. c #1D8DC1",
",. c #0090CF",
"<. c #0D91CD",
"1. c #1291CC",
"2. c #1A94CC",
"3. c #1D98CF",
"4. c #008FD0",
"5. c #0091D1",
"6. c #0C93D1",
"7. c #0096D9",
"8. c #1294D1",
"9. c #1897D0",
"0. c #1C9AD4",
"q. c #1799D5",
"w. c #2492C4",
"e. c #2A93C3",
"r. c #2796CA",
"t. c #2599CE",
"y. c #2A99CB",
"u. c #2C97C9",
"i. c #3799C6",
"p. c #3998C5",
"a. c #3095C4",
"s. c #299DD2",
"d. c #229BD3",
"f. c #2BA1D6",
"g. c #3CA5D5",
"h. c #36A3D5",
"j. c #479CC2",
"k. c #4C9EC3",
"l. c #44A1CC",
"z. c #4BA3CB",
"x. c #57A8CE",
"c. c #57A5C8",
"v. c #40A7D6",
"b. c #4CA7D1",
"n. c #4CA9D4",
"m. c #43ACDC",
"M. c #4BAEDB",
"N. c #5BADD3",
"B. c #51ADD7",
"V. c #5CB3DC",
"C. c #51B2DE",
"Z. c #65A5C2",
"A. c #64ADCE",
"S. c #6AAECD",
"D. c #6CA7C1",
"F. c #72ACC6",
"G. c #6CB0CF",
"H. c #7BB1C9",
"J. c #76B3CE",
"K. c #6BB1D2",
"L. c #60B7DE",
"P. c #64B8DF",
"I. c #6AB9DD",
"U. c #63B0D2",
"Y. c #76B4D2",
"T. c #76B9D6",
"R. c #70B7D9",
"E. c #75BCDC",
"W. c #7ABDDC",
"Q. c #5BB6E1",
"!. c #6CBDE2",
"~. c #72BEE2",
"^. c #74C1E4",
"/. c #82ADC1",
"(. c #8BB2C4",
"). c #85B5CA",
"_. c #8DB8CC",
"`. c #90B7C9",
"'. c #97B9CA",
"]. c #9EBFCE",
"[. c #84BBD4",
"{. c #87BED7",
"}. c #94BED2",
"|. c #A0BFCE",
" X c #8CC3DC",
".X c #95C1D5",
"XX c #9EC3D4",
"oX c #95C5DB",
"OX c #9EC7D9",
"+X c #97C8DF",
"@X c #9EC9DD",
"#X c #A0C0CE",
"$X c #A3C4D2",
"%X c #A8C7D4",
"&X c #A2CADC",
"*X c #ACCCDB",
"=X c #B3CDD9",
"-X c #B1D1DF",
";X c #B9D1DC",
":X c #85C6E4",
">X c #89C5E2",
",X c #86C8E6",
"<X c #8AC9E5",
"1X c #8CCCE9",
"2X c #95CCE4",
"3X c #9DCDE3",
"4X c #95CFE9",
"5X c #97D1EB",
"6X c #9ED2EA",
"7X c #A0CEE3",
"8X c #A3D1E6",
"9X c #ABD2E4",
"0X c #A3D4EB",
"qX c #ABD6EA",
"wX c #ACD8ED",
"eX c #B5D5E3",
"rX c #B8D5E3",
"tX c #B4D8E7",
"yX c #BFD9E5",
"uX c #B4DAEB",
"iX c #BBDDEC",
"pX c #AEDBF0",
"aX c #B5DEF1",
"sX c #BEE0EF",
"dX c #BAE1F2",
"fX c #C1D6DF",
"gX c #C2D7E0",
"hX c #C7DCE6",
"jX c #C2DFEC",
"kX c #CDDFE8",
"lX c #C2E1EE",
"zX c #CDE1EA",
"xX c #D1E0E7",
"cX c #D3E4EC",
"vX c #DAE7ED",
"bX c #D6E8EF",
"nX c #DBE9EF",
"mX c #C3E3F2",
"MX c #CAE5F2",
"NX c #CFE9F5",
"BX c #D2E7F1",
"VX c #D4EAF4",
"CX c #DCEDF4",
"ZX c #DAEFF8",
"AX c #DFF0F7",
"SX c #DFF1F9",
"DX c #E3EEF3",
"FX c #E3F1F6",
"GX c #EAF2F5",
"HX c #E5F3F9",
"JX c #EAF5F9",
"KX c #EFF8FC",
"LX c #F1F7F9",
"PX c #F3F9FC",
"IX c #FFFFFF",
"UX c None",
/* pixels */
"UXUXUXUXUXUXUXUXUXUXUXUXUXUXUXUXUXUXUXUXUXUXUXUXUXUXUXUXUXUXUXUXUXUXUXUXUXUXUXUXUXUXUXUXUXUXUXUXUXUXUXUXUXUXUXUXUXUXUXUXUXUXUXUX",
"UXUXUXUXUXUXUXUXUXUXUXUXUXUXUXUXUXUXUXUXUXUXUXUXUX4.=.4.=.&.=.=.&.&.%.%.*.M &.UXUXUXUXUXUXUXUXUXUXUXUXUXUXUXUXUXUXUXUXUXUXUXUXUX",
"UXUXUXUXUXUXUXUXUXUXUXUXUXUXUXUXUXUXUXUXUXUX5.5.5.5.4.=.=.*.*.*.*.%.%.%.%.%.&.M M M UXUXUXUXUXUXUXUXUXUXUXUXUXUXUXUXUXUXUXUXUXUX",
"UXUXUXUXUXUXUXUXUXUXUXUXUXUXUXUXUXUXUX5.7.7.5.=.4.<.s.C.!.:X2X0X6X2X:XI.n.y.;.M z M %.M M UXUXUXUXUXUXUXUXUXUXUXUXUXUXUXUXUXUXUX",
"UXUXUXUXUXUXUXUXUXUXUXUXUXUXUXUXUX7.7.7.4.4.0.V.0XVXKXIXIXIXIXIXIXIXIXIXIXLXVX8XN.>.z k M k z UXUXUXUXUXUXUXUXUXUXUXUXUXUXUXUXUX",
"UXUXUXUXUXUXUXUXUXUXUXUXUXUXUX5.5.7.4.4.m.0XHXIXIXIXIXIXPXHXVXNXNXVXFXPXIXIXIXIXIXFX8Xl.N k M z k UXUXUXUXUXUXUXUXUXUXUXUXUXUXUX",
"UXUXUXUXUXUXUXUXUXUXUXUXUXUX5.5.=.=.M.dXPXIXIXIXSXpX^.M.f.0.8.<.<.1.2.s.n.E.wXAXIXIXIXIXuXl.k j M k UXUXUXUXUXUXUXUXUXUXUXUXUXUX",
"UXUXUXUXUXUXUXUXUXUXUXUXUX=.=.*.s.wXPXIXIXKX0XC.q.4.=.4.=.4.=.=.=.=.=.*.*.%.%.2.n.0XJXIXIXIX9XR j k k UXUXUXUXUXUXUXUXUXUXUXUXUX",
"UXUXUXUXUXUXUXUXUXUXUX=.=.*.%.I.HXIXIXJX,Xs.=.=.=.5.5.,.,.,.=.,.=.,.=.=.&.&.&.%.%.M r.>XJXIXIXHXK.p p k p UXUXUXUXUXUXUXUXUXUXUX",
"UXUXUXUXUXUXUXUXUXUX&.=.M :.8XIXIXIX7Xt.*.&.=.=.=.,.5.5.5.5.5.=.=.=.=.=.=.&.=.&.%.%.%.z w.6XIXIXIX3XB j k p UXUXUXUXUXUXUXUXUXUX",
"UXUXUXUXUXUXUXUXUX&.&.M w.jXIXIXZXn.M M %.&.&.&.=.=.=.,.5.5.5.,.,.=.=.=.=.=.&.&.*.%.%.%.M z b.ZXIXIXjXK j k p UXUXUXUXUXUXUXUXUX",
"UXUXUXUXUXUXUXUXM &.z e.NXIXIXuXw.M M M %.%.&.&.&.=.=.=.,.5.5.,.,.,.,.,.=.=.=.=.%.%.%.%.%.z k A qXIXIXBXI i k j UXUXUXUXUXUXUXUX",
"UXUXUXUXUXUXUXUX%.k P BXIXIX2XN M M M M M M &.&.&.&.&.=.=.=.,.5.5.,.,.=.=.=.3.g.I.<X0XuXiXwX3XR.l.3XPXIXBXK i p UXUXUXUXUXUXUXUX",
"UXUXUXUXUXUXUXM k C jXIXIX Xk k p M M p M M M M M &.&.&.=.=.,.,.5.=.4.f.~.aXHXIXIXIXIXIXIXIXIXIXIXMXFXIXIXjXx i p UXUXUXUXUXUXUX",
"UXUXUXUXUXUXz k k 7XIXIX+Xk k k M M M M M M M M M M M &.*.&.=.=.8.Q.aXPXIXIXIXIXIXIXIXIXIXIXIXIXIXIXIXIXIXIX7Xi p i UXUXUXUXUXUX",
"UXUXUXUXUXk M j S.IXIXtXa j p k p p p p M M M M M M M &.*.%.-.P.NXIXIXIXIXIXIXIXIXIXIXIXIXIXIXIXIXIXIXIXIXIXIXS.i p i UXUXUXUXUX",
"UXUXUXUXUXk j I GXIXnXV p p p p p p M p p p M M M M M M %.n.MXIXIXIXIXIXHXdX4X^.P.V.~.2XVXIXIXIXIXIXIXIXJXFXIXJXI u i UXUXUXUXUX",
"UXUXUXUXk k u 9XIXIXk.u i p p p p p p p p M p p k z z >.8XIXIXIXIXZX4XM.q.4.=.=.=.&.*.*.1.I.PXIXIXIXIXIXHXT.PXIX9Xi j u UXUXUXUX",
"UXUXUXUXk i j.IXIXOXu i u p i p i i p p p p p M k k x.CXIXIXIXlXV.1.=.=.4.4.,.,.=.=.=.=.&.%.V.PXIXIXIXIXIXp.2XIXIXj.u i UXUXUXUX",
"UXUXUXp j u yXIXJXU u u u u u u i u i i p p i i l  XIXIXIXjXb.;.%.*.=.=.5.5.,.,.4.=.=.=.*.=.&.MXIXIXIXIXIXp.S JXIXyXi j i UXUXUX",
"UXUXUXi y ' PXIX{.< u u u u u u u i u u u p i V tXIXIXCXU.N z M M &.&.=.=.,.5.,.4.5.=.=.=.&.*.wXIXIXIXIXPXa.j {.IXPXj.u u UXUXUX",
"UXUXUXj y &XIXLXJ < < u < u u < u u u u u u K zXIXLX{.S k k M M %.%.&.&.=.,.5.,.,.=.=.=.=.&.&.iXIXIXIXIXAXA k P LXIX@Xu p UXUXUX",
"UXUXu u g FXIX&X< < < u < u u u u y u u y J CXIXjXW i j k k M M M %.&.&.=.=.=.5.5.,.5.=.=.=.1.ZXIXIXIXIXuXz k k 8XIXFXK j u UXUX",
"UXUXu < c.IXIX| : u < < < < < < y < u < G CXPXJ.i u i i i k k z M M M &.&.=.,.5.5.,.,.,.=.=.h.PXIXIXIXIXE.z M k z.IXIXc.u i UXUX",
"UXUXu < OXIXDXd < < < : < : < < < < < F bXbXT < u i x Y.A.k k k M M M &.&.&.,.5.5.,.,.=.,.=.:XIXIXIXIXPXu.k M k Z FXIX&Xi i UXUX",
"UXu u s cXIX*X, < < : < < : < < < : 4 yX-Xh < u u u .XIXIXA.i k k M M M M &.=.=.5.5.,.,.=.9.AXIXIXIXIXuXM M M M k 9XIXBXa j i UX",
"UX< < G PXIXF.- : : : : : : : < : - .X.X< < < u u y +XIXIXG.i k M M M M M &.&.=.=.5.5.4.=.1XIXIXIXIXPXn.M %.M M k T.IXPXI i u UX",
"UX< < { IXIX` , : : - , : : : : - +.H.- < < < y < y F oX[.a j p p k M M M M &.=.=.5.5.4.m.PXIXIXIXIXsX%.%.M M M k l.IXIXk.i j UX",
"UX< , D.IXPXv - - - : - - : : $ b @.: : : < < y < u u < y i i p i M M M M &.&.=.=.=.=.0.ZXIXIXIXIXPXg.%.%.M M M k e.PXIXG.i i UX",
"UX< , ).IXDX7 - - - $ $ : $ $ 1 G ; - : : : : < y < < d [ x i p i p p M M M M &.=.=.6.aXIXIXIXIXIX4X%.*.&.M %.M z S FXIX{.u i UX",
"UX< - }.IXbX2 $ - - $ - $ - $ : - - - $ : : : < < < Y CXIXL u i p M p M M M M &.&.-.6XIXIXIXIXIXNX1.&.&.&.%.%.M z C VXIXoXi j UX",
"UX< $ $XIXxX> - - $ $ $ $ $ $ $ - - - - - - : : < , { IXIXY y i i u M M M M M M &.4XIXIXIXIXIXKXg.*.=.&.&.%.M M M N BXIX3Xi p UX",
"UX< + XXIXxX; $ $ $ $ $ $ - $ $ $ $ $ : - - - : , , | IXIXT y i i M u M M M M C 0XIXIXIXIXIXPXQ.=.=.=.&.&.&.M M M N BXIX3Xi j UX",
"UX, + }.IXbX2 $ $ + $ + + O $ $ $ $ $ $ - $ - - - , +.IXIX' y u u u M u u M P yXIXIXIXIXIXIX~.=.=.=.=.&.&.&.&.M M A VXIXoXj p UX",
"UX- + ).IXDX3 + $ + + + + + $ $ - $ $ $ $ $ - - , - Z.IXIX{ y u u M u M p z.AXIXIXIXIXIXIX^.=.4.=.=.=.&.&.&.&.M M >.HXIX{.j p UX",
"UX- + #.IXPXr O + + + + O + O $ + + $ $ $ $ $ - - $ D.IXIX| < u u u u B  XPXIXIXIXIXIXPX!.=.5.4.=.=.=.=.&.&.M &.M e.KXIXK.j k UX",
"UX- + ) IXIX/ O + + O + O O O O + + + $ $ $ $ - - $ H.IXIX+., y < u c.BXIXIXIXIXIXIXFXC.,.5.5.,.=.=.&.=.&.&.&.M z b.IXIXz.k k UX",
"UX- $ r LXIX$.  O O O O O O $ O O + + + + $ $ - - + ).IXIXZ., < ' rXIXIXIXIXIXIXIXsXy.&.=.,.,.,.5.=.=.=.&.&.&.M z T.IXPXR k p UX",
"UX- - % cXIX*XO O O O O O O O O + O + + + $ + - - + _.IXIXF._ eXIXIXIXIXIXIXIXLXW.C M &.=.,.,.,.,.,.=.=.=.&.&.&.%.qXIXVXN k k UX",
"UXUX- O #XIXnX* O O O O O O O O O O O + + + $ $ + + }.IXIXDXIXIXIXIXIXIXIXIX9Xa.M M &.&.=.,.5.,.,.=.=.=.&.&.&.%.:.AXIX8Xk M UXUX",
"UXUX$ O } IXIX..    X . . O o O . + O O O $ O + 2 ^ zXIXIXIXIXIXIXIXIXPXrXj.M p M M M M =.=.,.,.,.,.=.=.=.&.*.M B.IXIXN.k z UXUX",
"UXUX+ + 3 DXIXGX/.9 .           . .   . % q } XXvXIXIXIXIXIXIXIXIXGX&X' i i p M M M M &.&.=.,.,.,.,.=.=.=.&.&.%.0XIXHX>.z k UXUX",
"UXUXUX$ o $XIXGX'.xX;X$.( m t m ! ../.%XkXPXIXIXIXIXIXIXIXIXLXeXD.g u u i p p M M M M =.=.=.,.,.,.,.=.=.=.&.*.r.LXIX3Xz M UXUXUX",
"UXUXUX$ o Q PXIX/.9 %XLXIXIXIXIXIXIXIXIXIXIXIXIXIXIXPXIXIX-Xc < < y u u i p p p M M M M &.,.,.,.5.=.=.=.=.&.%.<XIXIXl.z M UXUXUX",
"UXUXUX$ $ @ ;XIXGX8   8 ..'.fXvXFXGXGXFXvXhX*X`.o.Q kXIXIX.X- : < y u u i p p M M M M &.&.=.,.,.,.=.,.=.=.*.t.JXIXiXM %.M UXUXUX",
"UXUXUXUXO   ! PXIX|.        . @ & * * & % O o o O + kXIXIX%X- < < y y u u i p p M M M M &.=.,.,.5.,.,.=.=.*.8XIXIXb.M %.UXUXUXUX",
"UXUXUXUXO + o %XIXPX!     . .     . . o O O O $ + ; cXIXIX*X- < < u u u i i p p M M M M &.=.=.,.,.,.,.=.*.M.IXIXqXM &.M UXUXUXUX",
"UXUXUXUXUXO   w DXIXvX=     . . . . . . O O O O + > nXIXIX-X- < < < u u i i p M p M M M M =.=.,.5.,.,.=.3.VXIXJXy.%.&.UXUXUXUXUX",
"UXUXUXUXUXO O   O.IXIX=XX     . . . . . O O O $ O 2 DXIXIXrX, : < < < u i i p k k M M M &.&.=.4.=.5.=.<.uXIXIXI.M =.&.UXUXUXUXUX",
"UXUXUXUXUXUXO O   #XIXIX'.      . . . O . O O O O 7 GXIXIXyX- : < < u u u p p p k M M &.%.=.=.5.5.=.4.5XIXIX0X&.=.%.UXUXUXUXUXUX",
"UXUXUXUXUXUXUXO . # fXIXIX(.    . . . o . O O O O 5 LXIXIXhX; : < < < u u i p p M M M M %.&.=.4.5.=.1XIXIXmX1.=.&.UXUXUXUXUXUXUX",
"UXUXUXUXUXUXUXUXO   8 xXIXIX'.X   . O o O O O O O q LXIXIXzX: : < u u u u p p k p p M M &.&.=.=.6.4XIXIXNXt.*.=.UXUXUXUXUXUXUXUX",
"UXUXUXUXUXUXUXUXO O   9 xXIXIX=X=     . o O O O + r PXIXIXcX1 : < < u u u p p p M M M M %.=.*.d.aXIXIXNXs.=.5.=.UXUXUXUXUXUXUXUX",
"UXUXUXUXUXUXUXUXUXO .   8 fXIXIXvX!     O O + O O n PXIXIXvX1 : < < < u u i p p p M M M M *.M.CXIXIXmXd.=.4.5.UXUXUXUXUXUXUXUXUX",
"UXUXUXUXUXUXUXUXUXUXO O   # |.IXIXIX].w   o O + O H IXIXIXDX1 , < u u u u p p k k M M k t.6XPXIXIX0X8.=.5.=.UXUXUXUXUXUXUXUXUXUX",
"UXUXUXUXUXUXUXUXUXUXUX. .     O.GXIXIXFX(.q o O O ~ IXIXIXFX6 , < < < u u i p p p k w. XJXIXIXJX!.4.4.7.5.UXUXUXUXUXUXUXUXUXUXUX",
"UXUXUXUXUXUXUXUXUXUXUXUXUXO O   w %XIXIXIXGX$X( & ^ IXIXIXGX6 , : < y y u u i V z.9XLXPXIXIXwXf.=.5.7.UXUXUXUXUXUXUXUXUXUXUXUXUX",
"UXUXUXUXUXUXUXUXUXUXUXUXUXUXO O . o / ;XIXIXIXIXnXkXIXIXIXKXv 1 s 6 h F [ J.9XCXIXIXIXIXaXn.=.4.7.7.UXUXUXUXUXUXUXUXUXUXUXUXUXUX",
"UXUXUXUXUXUXUXUXUXUXUXUXUXUXUXO O O   O Q |.DXIXIXIXIXIXIXIXnXzXbXcXDXPXIXIXIXIXIXFX8Xl.%.&.5.7.7.UXUXUXUXUXUXUXUXUXUXUXUXUXUXUX",
"UXUXUXUXUXUXUXUXUXUXUXUXUXUXUXUXUX+ O + o o 3 } $XcXPXIXIXIXIXIXIXIXIXIXIXPXVX7XN.>.z %.=.=.5.UXUXUXUXUXUXUXUXUXUXUXUXUXUXUXUXUX",
"UXUXUXUXUXUXUXUXUXUXUXUXUXUXUXUXUXUXUX$ $ $ + + + ; r ` D.).}.OX&X}.[.S.[ I l p k M &.&.=.UXUXUXUXUXUXUXUXUXUXUXUXUXUXUXUXUXUXUX",
"UXUXUXUXUXUXUXUXUXUXUXUXUXUXUXUXUXUXUXUXUXUX$ $ - - - $ $ - , , < < < u i j k M M M UXUXUXUXUXUXUXUXUXUXUXUXUXUXUXUXUXUXUXUXUXUX",
"UXUXUXUXUXUXUXUXUXUXUXUXUXUXUXUXUXUXUXUXUXUXUXUXUX, - : < : < y y u u p p p k UXUXUXUXUXUXUXUXUXUXUXUXUXUXUXUXUXUXUXUXUXUXUXUXUX",
"UXUXUXUXUXUXUXUXUXUXUXUXUXUXUXUXUXUXUXUXUXUXUXUXUXUXUXUXUXUXUXUXUXUXUXUXUXUXUXUXUXUXUXUXUXUXUXUXUXUXUXUXUXUXUXUXUXUXUXUXUXUXUXUX"
};
